<svg width="120" height="120" viewBox="0 0 120 120" xmlns="http://www.w3.org/2000/svg">
  <rect width="120" height="120" rx="22" fill="#0f1a2e" stroke="#1e3452" stroke-width="1.5"/>
  <!-- edges -->
  <line x1="60" y1="28" x2="32" y2="60" stroke="#3b7aac" stroke-width="6"/>
  <line x1="60" y1="28" x2="60" y2="62" stroke="#3b7aac" stroke-width="6"/>
  <line x1="60" y1="28" x2="88" y2="60" stroke="#3b7aac" stroke-width="6"/>
  <line x1="32" y1="60" x2="20" y2="90" stroke="#3b7aac" stroke-width="5"/>
  <line x1="32" y1="60" x2="44" y2="90" stroke="#3b7aac" stroke-width="5"/>
  <line x1="88" y1="60" x2="76" y2="90" stroke="#3b7aac" stroke-width="5"/>
  <line x1="88" y1="60" x2="100" y2="90" stroke="#3b7aac" stroke-width="5"/>
  <!-- glow root -->
  <circle cx="60" cy="28" r="13" fill="#334155" opacity=".3"/>
  <!-- root node -->
  <circle cx="60" cy="28" r="9" fill="#334155" stroke="#38bdf8" stroke-width="1.5"/>
  <circle cx="60" cy="28" r="4" fill="#38bdf8"/>
  <!-- mid nodes -->
  <circle cx="32" cy="60" r="7" fill="#6d28d9" opacity=".9"/>
  <circle cx="32" cy="60" r="3" fill="#c084fc"/>
  <circle cx="60" cy="62" r="7" fill="#6d28d9" opacity=".9"/>
  <circle cx="60" cy="62" r="3" fill="#c084fc"/>
  <circle cx="88" cy="60" r="7" fill="#6d28d9" opacity=".9"/>
  <circle cx="88" cy="60" r="3" fill="#c084fc"/>
  <!-- leaf nodes -->
  <circle cx="20" cy="90" r="5" fill="#c2410c" opacity=".9"/>
  <circle cx="44" cy="90" r="5" fill="#0369a1" opacity=".9"/>
  <circle cx="76" cy="90" r="5" fill="#0369a1" opacity=".9"/>
  <circle cx="100" cy="90" r="5" fill="#c2410c" opacity=".9"/>
</svg>
